inDegrees=no
num_controls=7
num_derivatives=13
num_iterations=210
num_multipliers=7
num_parameters=0
num_slacks=7
num_states=26
objective=6.187655
objective_accelerations=0.749178
objective_balance=0.050402
objective_effort=0.625630
objective_height=4.737840
objective_ligament=0.024606
solver_duration=2122.495328
status=Solve_Succeeded
success=true
DataType=double
version=3
OpenSimVersion=4.4-2022-07-23-0e9fedc
endheader
time	/jointset/ground_pelvis/pelvis_tilt/value	/jointset/ground_pelvis/pelvis_tx/value	/jointset/ground_pelvis/pelvis_ty/value	/jointset/hip_l/hip_flexion_l/value	/jointset/hip_l/hip_adduction_l/value	/jointset/hip_l/hip_rotation_l/value	/jointset/back/lumbar_extension/value	/jointset/patellofemoral_l/patellar_flexion_l/value	/jointset/knee_l/knee_flexion_l/value	/jointset/knee_l/knee_adduction_l/value	/jointset/knee_l/knee_rotation_l/value	/jointset/ankle_l/ankle_angle_l/value	/jointset/subtalar_l/subtalar_angle_l/value	/jointset/ground_pelvis/pelvis_tilt/speed	/jointset/ground_pelvis/pelvis_tx/speed	/jointset/ground_pelvis/pelvis_ty/speed	/jointset/hip_l/hip_flexion_l/speed	/jointset/hip_l/hip_adduction_l/speed	/jointset/hip_l/hip_rotation_l/speed	/jointset/back/lumbar_extension/speed	/jointset/patellofemoral_l/patellar_flexion_l/speed	/jointset/knee_l/knee_flexion_l/speed	/jointset/knee_l/knee_adduction_l/speed	/jointset/knee_l/knee_rotation_l/speed	/jointset/ankle_l/ankle_angle_l/speed	/jointset/subtalar_l/subtalar_angle_l/speed	/forceset/tau_hip_flexion_l	/forceset/tau_hip_adduction_l	/forceset/tau_hip_rotation_l	/forceset/tau_knee_flexion_l	/forceset/tau_ankle_angle_l	/forceset/tau_subtalar_angle_l	/forceset/tau_lumbar_extension	lambda_cid13_p0	lambda_cid13_p1	lambda_cid13_p2	lambda_cid13_p3	lambda_cid13_p4	lambda_cid13_p5	lambda_cid14_p0	/jointset/ground_pelvis/pelvis_tilt/accel	/jointset/ground_pelvis/pelvis_tx/accel	/jointset/ground_pelvis/pelvis_ty/accel	/jointset/hip_l/hip_flexion_l/accel	/jointset/hip_l/hip_adduction_l/accel	/jointset/hip_l/hip_rotation_l/accel	/jointset/back/lumbar_extension/accel	/jointset/patellofemoral_l/patellar_flexion_l/accel	/jointset/knee_l/knee_flexion_l/accel	/jointset/knee_l/knee_adduction_l/accel	/jointset/knee_l/knee_rotation_l/accel	/jointset/ankle_l/ankle_angle_l/accel	/jointset/subtalar_l/subtalar_angle_l/accel	gamma_cid13_p0	gamma_cid13_p1	gamma_cid13_p2	gamma_cid13_p3	gamma_cid13_p4	gamma_cid13_p5	gamma_cid14_p0
1.5	-0.08213719918049647	-0.05703308856515931	0.819612623660498	0.8893521127699906	-0.3041179152077984	-0.1388648726067313	-0.8178736430216742	0.8427376694224916	0.8427376694224807	-0.04351037194693968	-0.1736847590720563	0.1031347378198147	0.02639820751935474	0.553615709652289	0.3047669741122618	0.5654138691012441	-2.542857733446318	0.04267257244057086	-0.5265245827210575	0.8248307868797372	-2.170774083557397	-2.170774083557149	-0.3398683311534476	0.0180525094281216	-0.3161638971619695	-0.06264275738348776	-0.2596920238199238	0.01204084795458483	-0.01006006572200413	-0.2167838358685907	0.1101878719261462	0.05437494516869523	0.3160605792316188	-5.70518093475789	-23.16902890919295	3.871044099527319	-14.61078823297858	-662.9359359348551	-78.28868725070836	-12.8433589366231	0.3502096317587917	0.9643613704301589	-0.761891106144295	-1.127009377165815	0.3736118847421829	-0.5250019947034527	2.359255090780349	-1.085801915552844	-1.085801915552819	-0.169237100064847	0.245934750202504	-0.345659650471312	0.3086824849558599	3.567730061232427e-07	4.744551576506748e-07	-1.922459936233068e-06	-1.530392264379437e-07	4.962748659312719e-07	-4.98858266763061e-09	2.814284467560201e-07
1.51	-0.07658399933500312	-0.05393733476398559	0.8252275793593267	0.8638691805786213	-0.3036738013357771	-0.1441536131908675	-0.8095089333774198	0.8209780887517	0.8209780887517359	-0.04692131159159128	-0.1734916996530316	0.0999562885884125	0.02578586066584132	0.5569254935189395	0.314364992852803	0.5574597140605221	-2.553408823852466	0.04615980873711956	-0.5311763238492273	0.8480111979930255	-2.180844692485759	-2.180844692485617	-0.3422688676020537	0.02057613252795288	-0.3194240744768299	-0.05978249979979464	-0.2497903558366056	0.01137208690412336	-0.009819113576230411	-0.2135325411279047	0.110438444158394	0.05345681990295041	0.3071125803793961	-5.300566446663662	-22.97848835911282	3.997559110254091	-14.69977337114092	-656.8086917795475	-78.19292118398056	-13.67625773437878	0.3065953790819283	0.9546413098169556	-0.8296699159014871	-0.9711107362296348	0.3380779009156974	-0.427753240664822	2.282442524516226	-0.9231582658763445	-0.923158265892129	-0.2678850812065269	0.257510043787836	-0.3009111145054048	0.281614771770025	4.573653543061666e-07	3.396494258316938e-07	-2.591930440979428e-06	-2.560613235689534e-07	6.349494181725135e-07	3.102768450873788e-08	3.319684834715048e-07
1.52	-0.07100065512787668	-0.05074617693861721	0.8307594950651754	0.8382903471103942	-0.30319445542103	-0.1494873698000559	-0.8009154179414532	0.7991267084147927	0.7991267084147898	-0.05035474123356283	-0.1732730172121742	0.0967482947153577	0.02520349986350338	0.5596445819842131	0.3238477789511982	0.5488058705051773	-2.562037988814226	0.04971898098586512	-0.535527787729023	0.8705919452228928	-2.189134016790059	-2.189134016790022	-0.34436633060859	0.02317711378435926	-0.3220728254921656	-0.05664554714834066	-0.2398886878532992	0.01070332585361277	-0.009578161431142155	-0.2102812463872311	0.1106890163906328	0.05253869463716029	0.2981645815271737	-4.893478075212597	-22.7849589850853	4.119691725690687	-14.83854084625763	-650.6835952727585	-78.17150862247247	-14.4930290087646	0.2320705514827617	0.9413148420013409	-0.9018288090687994	-0.742624288288145	0.3879990751815346	-0.4649465450287205	2.23932231409581	-0.7295449907402913	-0.7295449907403095	-0.1086224116510383	0.2614063815174092	-0.2233743905659183	0.3640214985081086	5.049955003987649e-07	2.828678727582074e-07	-2.89449563819833e-06	-3.075236612119103e-07	7.199015085259972e-07	8.896295985448785e-08	3.525717063236642e-07
1.53	-0.06539302033119683	-0.04746099476402817	0.8362014367940688	0.8126349213086501	-0.3026791802125223	-0.1548631165881086	-0.7920993830039128	0.7772012875332986	0.7772012875333232	-0.05380760823246153	-0.1730278449599779	0.09351666202842299	0.02465378970032707	0.5617879204363594	0.333146652550296	0.53947009062502	-2.568707346438081	0.05333658039187956	-0.5395474750239402	0.8924863097774789	-2.195642449215632	-2.195642449215708	-0.3461792125810406	0.02588009013172355	-0.3241684113671134	-0.05326977593511969	-0.2303644236845961	0.01022252615109001	-0.009272838711457296	-0.2062714481047688	0.1093735439285379	0.05151941929615738	0.2892855042551621	-5.012726954316618	-22.45948593197128	4.225519179934969	-14.33691305446142	-644.6732734714833	-77.94075268742574	-15.29261575629963	0.1913392501675034	0.917812622310734	-0.9661577356150721	-0.5780562008124595	0.3490456241861212	-0.3589555937604733	2.145183649568866	-0.5654028988574211	-0.5654028988741853	-0.2134771102788094	0.2776146014107675	-0.1898491017337883	0.3286325052599074	4.963533067703929e-07	3.089870096018079e-07	-2.807223946169311e-06	-3.042037543988119e-07	7.477734831237388e-07	1.701871813802054e-07	3.413670644460409e-07
